<svg width="133" height="126" viewBox="0 0 133 126" fill="none" xmlns="http://www.w3.org/2000/svg">
<path d="M22.3479 80.6889L52.6521 120.266C59.2174 117.621 66.2107 113.968 73.3166 109.426L36.7849 61.7128C31.0641 68.0698 26.1992 74.498 22.3479 80.6889Z" fill="#F79422"/>
<path d="M36.7843 61.7121L73.316 109.425C79.4422 105.511 85.6697 100.921 91.7958 95.7149L53.4285 45.6062C47.3024 50.8009 41.728 56.2328 36.7843 61.7121Z" fill="#F79422"/>
<path d="M3.14642 103.317L15.3649 119.269C18.0339 122.756 22.2118 124.701 27.4709 125.211L7.72977 99.4269L3.14642 103.317Z" fill="#F79422"/>
<path d="M16.2538 92.1932L7.72897 99.4398L27.4701 125.224C34.3282 125.9 43.0332 124.156 52.6503 120.278L22.3462 80.7009C19.8912 84.6384 17.8417 88.5048 16.2538 92.1932Z" fill="#F79422"/>
<path d="M92.5725 21.0559L122.877 60.6329C128.519 51.56 131.976 42.9733 132.809 35.7624L113.068 9.97864L104.543 17.2251C100.771 18.0791 96.7617 19.3599 92.5725 21.0559Z" fill="#FFB329"/>
<path d="M129.858 22.041L117.639 6.08923L113.067 9.97933L132.808 35.7631C133.439 30.2363 132.527 25.5397 129.858 22.041Z" fill="#FFB329"/>
<path d="M91.7958 95.7143C97.922 90.5078 103.496 85.0759 108.429 79.6084L71.8971 31.8954C65.7709 35.8092 59.5435 40.399 53.4173 45.6056L91.7958 95.7143Z" fill="#FFA325"/>
<path d="M71.8966 31.8962L108.428 79.6092C114.16 73.2522 119.025 66.824 122.877 60.6331L92.5723 21.0561C86.007 23.7009 79.0137 27.3419 71.8966 31.8962Z" fill="#FFA325"/>
<path d="M117.64 6.08853C128.237 19.9292 111.199 52.912 79.5769 79.7632C47.9552 106.614 13.7433 117.158 3.14645 103.329C-7.45044 89.4884 9.58791 56.5056 41.2097 29.6545C72.8314 2.8033 107.043 -7.75215 117.64 6.08853Z" fill="url(#paint0_linear_977_1981)"/>
<path d="M112.483 9.90732C121.92 22.2299 106.131 52.1291 77.2237 76.6913C48.3046 101.242 17.2234 111.157 7.78643 98.834C-1.65055 86.5114 14.1378 56.6122 43.0456 32.05C71.9534 7.48786 103.046 -2.41528 112.483 9.90732Z" fill="url(#paint1_linear_977_1981)"/>
<path d="M112.268 13.4297C121.074 24.9339 105.568 53.4929 77.6282 77.2249C49.6889 100.957 19.9028 110.86 11.0851 99.3558C2.2788 87.8515 17.7856 59.2925 45.7249 35.5605C73.6643 11.8286 103.462 1.92541 112.268 13.4297Z" fill="url(#paint2_linear_977_1981)"/>
<path fill-rule="evenodd" clip-rule="evenodd" d="M76.8371 42.6118C75.5036 42.3415 74.0052 42.4844 72.9567 42.6509L72.9418 42.6537L74.0233 41.2104C73.8191 41.0807 73.5083 40.9448 73.0321 40.8815C72.395 40.7958 71.7031 40.8776 71.1965 40.9667L71.168 41.0031C70.6618 41.1141 69.9656 41.3035 69.0973 41.6404C68.3418 41.9331 67.6747 42.2512 67.1623 42.5144L65.9613 43.9799L65.9488 43.9796C64.8474 44.2137 63.0985 44.6757 60.8116 45.6204C58.0118 46.776 55.6849 48.1291 54.3357 48.9673C53.639 49.0185 49.7372 49.2554 49.4578 46.4963C49.1391 43.3567 53.769 38.9469 54.3587 38.3943C54.5021 38.2156 55.1054 37.4509 54.7736 37.2036C54.4486 36.9653 53.4366 37.3549 52.9567 37.5396L52.9447 37.5443C50.698 38.4134 45.5304 41.7418 41.4754 45.9267C35.9981 51.579 36.0703 55.1627 36.093 55.5724C36.2188 57.9383 38.1877 58.7269 39.2239 59.0107L38.5597 59.9911L37.6359 60.5064L35.5918 63.1115L36.1839 63.685C34.6727 64.8311 32.4604 66.6108 30.2934 68.8039C28.6894 70.4258 25.3139 73.8421 24.8132 76.5841C24.7042 77.1861 24.6059 78.4567 26.2146 79.5744C29.6728 81.9823 36.9249 80.8305 40.7405 80.0332L40.7574 80.0117C44.4965 79.3874 51.9888 77.7399 60.8727 73.0947C65.0866 70.8924 67.29 69.2296 68.2501 68.4691C72.6176 65.0068 74.3657 61.8936 75.1934 60.4163C76.3153 58.4179 76.6167 56.9942 76.6946 56.1151L78.5435 55.0869L80.5876 52.4818L80.2946 52.1932L81.2051 51.1669C83.1176 50.3338 87.2102 48.416 91.7276 45.1851C92.5111 44.6252 99.1948 39.783 102.231 34.5854C104.479 30.7371 103.66 28.524 102.242 28.3376L102.234 28.3367C101.929 28.2981 101.287 28.2167 100.413 28.6783C99.5127 29.1551 98.9169 29.9185 98.781 30.0957C98.557 30.5802 96.6668 34.4797 90.4686 38.8332C85.0223 42.659 80.22 44.0435 79.3789 44.2788C79.1083 43.7423 78.4716 42.9414 76.8371 42.6118Z" fill="url(#paint3_linear_977_1981)"/>
<defs>
<linearGradient id="paint0_linear_977_1981" x1="0.570757" y1="-10.5091" x2="70.1561" y2="95.1954" gradientUnits="userSpaceOnUse">
<stop offset="1e-08" stop-color="#F79422"/>
<stop offset="1" stop-color="#FFBB6B"/>
</linearGradient>
<linearGradient id="paint1_linear_977_1981" x1="116.581" y1="102.309" x2="30.3134" y2="16.6691" gradientUnits="userSpaceOnUse">
<stop stop-color="#E4800C"/>
<stop offset="1" stop-color="#CC822D"/>
</linearGradient>
<linearGradient id="paint2_linear_977_1981" x1="1.22428" y1="-0.621899" x2="93.5405" y2="106.944" gradientUnits="userSpaceOnUse">
<stop stop-color="#FFC37D"/>
<stop offset="1" stop-color="#E37F0B"/>
</linearGradient>
<linearGradient id="paint3_linear_977_1981" x1="83.8352" y1="28.3058" x2="81.7026" y2="101.739" gradientUnits="userSpaceOnUse">
<stop stop-color="#FFE2C0"/>
<stop offset="1" stop-color="#FFC52D" stop-opacity="0"/>
</linearGradient>
</defs>
</svg>
