<svg width="1440" height="252" viewBox="0 0 1440 252" fill="none" xmlns="http://www.w3.org/2000/svg">
<g clip-path="url(#clip0_2840_199)">
<path d="M0 12C0 5.37258 5.37258 0 12 0H1428C1434.63 0 1440 5.37258 1440 12V240C1440 246.627 1434.63 252 1428 252H12C5.37257 252 0 246.627 0 240V12Z" fill="#979FF7" fill-opacity="0.1"/>
<path d="M496.852 607.107C495.416 600.155 493.592 590.173 492.161 578.613C490.696 567.045 489.535 553.797 488.952 539.879C487.734 512.101 489.047 481.396 493.705 455.599C496.019 442.724 499.144 431.106 502.722 421.941C506.232 412.759 510.279 406.123 513.478 402.976C516.691 399.707 518.861 400.179 518.426 402.665C518.176 405.128 514.999 408.998 512.759 411.253C512.099 412.369 510.285 413.643 508.254 414.59C506.233 415.558 504.051 416.195 502.687 416.728C499.737 417.753 500.434 418.765 505.071 422.819C509.612 426.758 517.544 433.577 527.445 443.02C537.41 452.426 549.314 464.36 562.882 477.8C576.467 491.22 591.728 506.167 609.179 521.571C626.655 536.971 646.337 552.901 669.603 567.923C692.841 582.897 719.862 597.111 751.824 607.221C783.624 617.343 820.71 622.88 859.281 619.898C894.963 617.26 931.127 607.407 964.478 591.752C984.676 582.321 1004.14 570.578 1022.03 556.367C1039.89 542.208 1056.1 525.523 1069.54 507.327C1083.03 489.169 1093.7 469.566 1101.54 450.108C1109.4 430.646 1114.51 411.342 1117.71 393.068C1124.03 356.318 1123.26 323.759 1120.72 294.823C1118.04 265.885 1113.36 240.25 1108.87 217.378C1104.4 194.599 1100.07 174.553 1097.22 158.381C1094.3 142.275 1093.06 130.009 1093.11 124.748C1093.12 123.441 1093.15 122.573 1093.22 122.197C1093.23 122.106 1093.25 122.04 1093.27 122.028C1093.27 121.995 1093.27 121.995 1093.27 122.028C1093.28 122.104 1093.28 122.303 1093.27 122.619C1093.17 123.923 1092.7 127.418 1090.93 132.543C1089.17 137.656 1085.98 144.362 1081.46 150.652C1077.01 156.982 1071.32 162.644 1066.46 166.347C1066.9 166.038 1067.19 165.845 1067.32 165.77C1067.34 165.758 1067.37 165.767 1067.37 165.767C1067.37 165.767 1067.37 165.767 1067.35 165.779C1067.34 165.811 1067.26 165.862 1067.13 165.933C1066.69 166.252 1065.51 166.904 1063.78 167.643C1060.31 169.198 1054.4 170.882 1048.77 171.444C1043.13 172.072 1038.08 171.653 1035.63 171.256C1033.1 170.847 1033.12 170.64 1035.64 171.561C1038.14 172.464 1043.06 174.492 1049.94 177.727C1056.87 180.945 1065.75 185.323 1076.5 190.448C1098.03 200.621 1127.13 214.307 1165.49 224.007C1196.65 231.894 1234.43 236.416 1274.43 232.327C1294.36 230.296 1314.78 226.45 1334.71 220.121C1354.65 213.725 1374 204.792 1392.11 193.48C1428.42 170.821 1459.57 139.12 1484.33 98.719C1496.73 78.4907 1507.6 56.0399 1517.06 31.2918C1526.51 6.57601 1534.52 -20.4739 1541.65 -49.6524C1560.94 -128.779 1498.83 -174.712 1425.11 -139.9C1400.58 -128.31 1378.24 -119.035 1358.61 -111.575C1338.95 -104.1 1321.94 -98.4342 1307.59 -94.1688C1278.85 -85.6065 1260.97 -83.0034 1251.88 -82.5942C1247.31 -82.3601 1244.88 -82.5984 1243.82 -82.6632C1243.28 -82.7184 1243.11 -82.6207 1243.08 -82.63C1243.1 -82.6418 1243.23 -82.6626 1243.45 -82.6759C1244.49 -82.8822 1246.05 -82.3938 1242.9 -83.0687C1239.3 -83.8709 1229.34 -87.4814 1213.08 -95.3209C1204.96 -99.1742 1195.28 -103.932 1183.75 -109.268C1172.2 -114.595 1158.81 -120.522 1142.94 -126.21C1127.1 -131.856 1108.67 -137.279 1087.45 -140.753C1066.32 -144.224 1042.28 -145.562 1017.22 -142.973C992.18 -140.42 966.395 -133.848 942.404 -123.758C918.355 -113.692 896.144 -100.331 875.978 -84.9547C856.911 -70.5239 839.571 -52.8487 825.681 -33.4312C811.706 -14.0501 801.251 6.86364 794.11 27.0786C786.916 47.3534 782.89 66.931 780.744 85.0541C778.602 103.233 778.3 120.036 778.875 135.655C780.154 166.877 784.751 193.637 789.543 217.739C794.419 241.792 799.675 263.166 803.865 281.761C808.074 300.288 811.191 315.995 812.66 327.08C813.416 332.61 813.776 336.963 813.944 339.804C814.126 342.673 814.104 344.01 814.334 343.768C814.558 343.52 815.098 341.658 816.456 338.807C817.75 335.993 819.956 332.207 822.659 328.888C825.32 325.546 828.449 322.77 830.621 321.38C831.712 320.668 832.545 320.296 832.948 320.208C833.359 320.135 833.351 320.366 832.776 320.843C829.604 322.955 830.669 322.739 832.476 323.219C834.446 323.588 836.347 324.866 834.084 325.12C832.023 325.376 826.159 324.155 817.378 320.085C808.626 316.116 797.175 309.437 784.12 300.712C771.042 292 756.351 281.277 740.336 269.539C724.266 257.802 706.906 245.057 687.61 232.299C668.285 219.586 647.017 206.75 622.157 195.592C597.358 184.54 568.43 175.023 535.353 172.061C518.882 170.624 501.536 170.911 484.146 173.427C466.743 175.923 449.419 180.664 433.048 187.401C402.557 199.716 375.667 219.201 355.694 241.537C335.526 263.929 321.952 288.564 312.824 312.558C303.711 336.626 298.818 360.296 296.267 383.264C293.762 406.262 293.637 428.62 294.957 450.342C297.683 493.738 306.123 534.713 316.531 571.241C321.745 589.499 327.518 606.614 333.536 622.291C339.575 638.001 345.83 652.27 352.389 665.25C391.131 741.874 514.328 691.167 496.852 607.107Z" fill="url(#paint0_linear_2840_199)"/>
<path d="M-384.054 437.297C-383.836 433.568 -383.404 428.247 -382.557 422.176C-381.727 416.098 -380.512 409.206 -378.913 402.053C-375.75 387.769 -370.9 372.343 -365.02 359.867C-362.091 353.638 -358.921 348.159 -355.854 343.988C-352.819 339.799 -349.859 336.978 -347.805 335.814C-345.727 334.59 -344.688 335.125 -345.248 336.33C-345.71 337.548 -347.852 339.082 -349.297 339.923C-349.784 340.4 -350.88 340.801 -352.041 341.006C-353.2 341.222 -354.396 341.249 -355.162 341.334C-356.801 341.453 -356.584 342.062 -354.78 344.754C-353.008 347.375 -349.905 351.92 -346.159 358.068C-342.376 364.206 -337.951 371.892 -332.885 380.57C-327.808 389.241 -322.088 398.916 -315.317 409.121C-308.531 419.328 -300.698 430.104 -290.919 440.907C-281.148 451.682 -269.35 462.586 -254.483 472.077C-239.699 481.552 -221.605 489.417 -201.596 493.154C-183.102 496.672 -163.38 496.59 -144.298 493.175C-132.748 491.132 -121.259 487.814 -110.23 483.028C-99.2222 478.265 -88.712 471.992 -79.4043 464.575C-70.0779 457.182 -61.9823 448.673 -55.3506 439.851C-48.7059 431.03 -43.4766 421.916 -39.3646 413.063C-31.1443 395.247 -27.1038 378.594 -24.4558 363.541C-21.8774 348.469 -20.7649 334.803 -19.9292 322.568C-19.1017 310.382 -18.5694 299.605 -17.8158 290.997C-17.1072 282.414 -16.0673 276.011 -15.3248 273.344C-15.1424 272.681 -15.0065 272.245 -14.9225 272.062C-14.9046 272.017 -14.8872 271.986 -14.8752 271.983C-14.8665 271.967 -14.8665 271.967 -14.8752 271.983C-14.8771 272.024 -14.9058 272.124 -14.9531 272.284C-15.1821 272.933 -15.8976 274.645 -17.4972 277.008C-19.0848 279.368 -21.6179 282.342 -24.775 284.922C-27.898 287.534 -31.5602 289.637 -34.5332 290.857C-34.2677 290.76 -34.095 290.701 -34.019 290.681C-34.007 290.677 -33.9918 290.686 -33.9918 290.686C-33.9918 290.686 -33.9918 290.686 -34.0038 290.689C-34.0126 290.705 -34.0645 290.718 -34.1365 290.738C-34.4049 290.84 -35.0919 291.011 -36.0746 291.15C-38.0463 291.469 -41.2812 291.519 -44.2172 291.039C-47.1703 290.589 -49.6832 289.688 -50.8723 289.153C-52.1001 288.601 -52.0634 288.499 -50.9075 289.31C-49.759 290.109 -47.5378 291.809 -44.4804 294.391C-41.398 296.97 -37.4822 300.403 -32.7147 304.473C-23.1552 312.576 -10.2312 323.494 7.94337 333.647C22.7072 341.9 41.2912 349.342 62.1779 352.712C72.5841 354.394 83.4853 355.22 94.4762 354.717C105.48 354.182 116.532 352.277 127.279 348.995C148.82 342.423 168.966 330.553 187.051 313.392C196.11 304.8 204.691 294.87 212.868 283.58C221.037 272.306 228.793 259.649 236.389 245.79C256.968 208.202 231.655 176.399 189.448 184.052C175.402 186.602 162.787 188.274 151.794 189.392C140.785 190.514 131.366 191.077 123.495 191.291C107.721 191.728 98.2774 190.616 93.6045 189.587C91.2497 189.083 90.0487 188.632 89.5168 188.454C89.2495 188.352 89.1495 188.379 89.1342 188.369C89.1461 188.366 89.2167 188.374 89.3301 188.397C89.8886 188.434 90.6119 188.894 89.1068 188.123C87.3831 187.224 82.8122 184.033 75.6187 177.835C72.0163 174.771 67.7407 171.033 62.6078 166.752C57.4668 162.472 51.4652 157.635 44.176 152.584C36.8935 147.557 28.2654 142.291 17.9539 137.636C7.68903 132.995 -4.34576 129.041 -17.4345 126.944C-30.5105 124.831 -44.5104 124.66 -58.0773 126.521C-71.6709 128.362 -84.7787 132.128 -97.1218 137.196C-108.778 141.934 -119.998 148.555 -129.701 156.533C-139.443 164.48 -147.605 173.685 -153.987 182.986C-160.404 192.311 -165.117 201.713 -168.675 210.631C-172.24 219.579 -174.681 228.078 -176.516 236.094C-180.118 252.136 -181.426 266.363 -182.273 279.265C-183.07 292.154 -183.309 303.732 -183.712 313.754C-184.096 323.743 -184.651 332.15 -185.414 337.984C-185.782 340.897 -186.193 343.159 -186.494 344.626C-186.792 346.109 -186.985 346.785 -186.836 346.694C-186.688 346.598 -186.16 345.725 -185.081 344.461C-184.041 343.207 -182.404 341.583 -180.578 340.264C-178.771 338.929 -176.803 337.944 -175.509 337.533C-174.858 337.32 -174.384 337.244 -174.167 337.255C-173.948 337.273 -173.983 337.389 -174.341 337.554C-176.241 338.195 -175.67 338.231 -174.817 338.721C-173.866 339.176 -173.074 340.084 -174.258 339.906C-175.341 339.755 -178.155 338.336 -182.064 335.072C-185.971 331.862 -190.881 326.909 -196.328 320.696C-201.789 314.488 -207.794 307.037 -214.336 298.89C-220.904 290.737 -227.992 281.895 -236.061 272.784C-244.152 263.69 -253.213 254.271 -264.328 245.214C-275.427 236.22 -288.833 227.444 -305.241 221.434C-313.416 218.461 -322.271 216.244 -331.452 215.155C-340.636 214.053 -350.087 214.104 -359.325 215.298C-376.498 217.405 -392.818 223.646 -406.011 232.278C-419.311 240.911 -429.564 251.584 -437.471 262.535C-445.38 273.527 -451.09 284.89 -455.515 296.216C-459.92 307.563 -463.028 318.909 -465.315 330.129C-469.839 352.556 -471.13 374.53 -470.815 394.512C-470.651 404.501 -470.048 413.986 -469.124 422.773C-468.195 431.58 -466.959 439.684 -465.393 447.174C-456.138 491.393 -386.619 482.399 -384.054 437.297Z" fill="url(#paint1_linear_2840_199)"/>
</g>
<defs>
<linearGradient id="paint0_linear_2840_199" x1="778.485" y1="-76.1204" x2="580.314" y2="565.299" gradientUnits="userSpaceOnUse">
<stop stop-color="#35ACE1"/>
<stop offset="1" stop-color="#5865F2" stop-opacity="0"/>
</linearGradient>
<linearGradient id="paint1_linear_2840_199" x1="-158.773" y1="152.267" x2="-72.4206" y2="474.539" gradientUnits="userSpaceOnUse">
<stop stop-color="#5865F2"/>
<stop offset="1" stop-color="#5865F2" stop-opacity="0"/>
</linearGradient>
<clipPath id="clip0_2840_199">
<path d="M0 12C0 5.37258 5.37258 0 12 0H1428C1434.63 0 1440 5.37258 1440 12V240C1440 246.627 1434.63 252 1428 252H12C5.37257 252 0 246.627 0 240V12Z" fill="white"/>
</clipPath>
</defs>
</svg>
