<svg width="96" height="56" viewBox="0 0 96 56" fill="none" xmlns="http://www.w3.org/2000/svg">
<g clip-path="url(#clip0_51_4138)">
<path d="M69.0357 24.7644C67.9529 22.3617 66.2761 20.2988 64.1755 18.7851C62.4434 17.5344 60.4663 16.6955 58.3854 16.3282C56.5539 15.9924 54.6868 16.1477 52.8375 16.1099C52.8375 16.1099 52.8375 5.56704 52.8375 0.93459C52.844 0.571014 52.7217 0.110036 52.3409 0.0109549C51.8695 -0.0730119 51.5309 0.382927 51.347 0.770854C50.8362 1.88832 50.1601 2.91617 49.343 3.81717C48.3289 4.96584 47.1422 5.92978 46.0146 6.95166C44.8401 7.99788 43.702 9.15075 42.9908 10.5967C42.2496 12.0736 42.0325 13.7807 42.1548 15.4256C42.2974 17.4215 42.8247 19.3662 43.4735 21.242C43.8105 22.1891 44.1613 23.1295 44.5695 24.0456C44.5314 22.5342 44.4796 21.0228 44.5258 19.5114C44.576 17.6902 44.704 15.8513 45.1892 14.0922C45.5278 12.8915 46.0948 11.6807 47.1122 10.9476C48.0081 10.2977 49.1527 10.1416 50.2187 10.2373C50.2219 17.1998 50.2219 24.1629 50.2187 31.1265C50.2261 32.2918 50.5642 33.429 51.1909 34.3965C51.8176 35.3639 52.705 36.1188 53.7427 36.567C54.7804 37.0152 55.9224 37.1369 57.0263 36.917C58.1303 36.6971 59.1474 36.1452 59.9508 35.3302C60.7543 34.5152 61.3086 33.4731 61.5447 32.3338C61.7808 31.1945 61.6881 30.0084 61.2783 28.9233C60.8686 27.8381 60.1598 26.902 59.2403 26.2316C58.3208 25.5612 57.2313 25.1861 56.1076 25.1531C55.0173 25.1406 53.9254 25.1674 52.8359 25.1406C52.8402 23.1942 52.8402 21.2487 52.8359 19.304H55.9415C57.957 19.3014 59.9368 19.8554 61.6772 20.9089C63.4176 21.9625 64.8559 23.4776 65.8442 25.2984C67.5655 28.4119 67.7761 32.3516 66.4169 35.6482C65.4023 38.1527 63.5837 40.2167 61.2692 41.4904C58.9546 42.7642 56.2865 43.1695 53.7167 42.6376C51.1469 42.1056 48.8336 40.6693 47.1685 38.5718C45.5034 36.4743 44.5889 33.8446 44.58 31.1282C44.58 29.1365 44.58 27.144 44.58 25.1506C43.5562 25.1448 42.5323 25.1649 41.51 25.138C41.5044 27.1071 41.51 29.0786 41.51 31.0493C41.5047 34.5651 42.6936 37.9706 44.8683 40.6686C47.0429 43.3666 50.0644 45.1849 53.403 45.8046C56.7416 46.4243 60.1841 45.8059 63.1268 44.0578C66.0695 42.3097 68.3246 39.5435 69.4966 36.2443C70.8129 32.554 70.6509 28.3246 69.0357 24.7644ZM52.929 31.1459C52.9549 30.3264 53.2902 29.5503 53.8628 28.9846C54.4353 28.4189 55.1993 28.109 55.9902 28.1216C56.781 28.1341 57.5355 28.4681 58.091 29.0517C58.6466 29.6353 58.9589 30.4217 58.9605 31.2416V31.2668C58.9605 31.2978 58.9605 31.3306 58.9605 31.3617C58.9605 31.3768 58.9605 31.3894 58.9605 31.4011C58.9605 31.4288 58.9605 31.4557 58.9605 31.4851C58.9304 31.9488 58.7967 32.399 58.5701 32.8C58.5563 32.8227 58.5442 32.8437 58.532 32.8663C58.5199 32.889 58.5077 32.9075 58.4939 32.9285C58.3889 33.0971 58.2687 33.2551 58.1351 33.4004C58.1022 33.4367 58.0681 33.472 58.033 33.5062C58.0168 33.5246 57.999 33.5414 57.9812 33.5582C57.7268 33.8016 57.4331 33.9968 57.1137 34.1351C56.7456 34.2935 56.351 34.375 55.9525 34.375C55.554 34.375 55.1594 34.2935 54.7913 34.1351C54.3823 33.9587 54.0167 33.6895 53.7212 33.3475C53.7039 33.3301 53.6877 33.3116 53.6726 33.2921C53.6548 33.2727 53.641 33.2526 53.6248 33.2333C53.5787 33.1779 53.5349 33.1174 53.4928 33.0553C53.4782 33.0343 53.4645 33.0158 53.4523 32.9948C53.4402 32.9738 53.4248 32.9511 53.4126 32.9302C53.3885 32.8942 53.3663 32.857 53.3462 32.8185C53.3303 32.7939 53.3162 32.768 53.3041 32.7412C53.2903 32.716 53.2782 32.6934 53.266 32.6682C53.2223 32.5792 53.185 32.486 53.1461 32.3919C53.1359 32.3685 53.1273 32.3444 53.1202 32.3197C53.1121 32.2987 53.104 32.2777 53.0975 32.2576C53.091 32.2374 53.0797 32.1988 53.0716 32.1736C53.0513 32.1132 53.036 32.0527 53.0214 31.9906C53.0068 31.9284 52.9938 31.8663 52.9833 31.8016C52.9775 31.7762 52.9734 31.7504 52.9712 31.7244C52.9513 31.5952 52.9399 31.4647 52.9371 31.3339C52.9371 31.3054 52.9371 31.2785 52.9371 31.25C52.9371 31.2214 52.929 31.1769 52.929 31.1433V31.1459Z" fill="white"/>
<path d="M29.7127 16.1124L17.9511 45.5697H11.7633L0 16.1124H6.59446L14.8333 38.1739L23.1126 16.1124H29.7127Z" fill="white"/>
<path d="M38.9511 21.5972H33.4413V45.4295H38.9511V21.5972Z" fill="white"/>
<path d="M32.9448 16.7556C32.9448 21.2059 39.4485 21.2059 39.4485 16.7556C39.4485 12.3054 32.9448 12.3087 32.9448 16.7556Z" fill="white"/>
<path d="M84.6531 21.6458C77.4276 21.6458 72.821 26.7031 72.821 33.7261C72.821 41.1227 77.3815 46.0373 85.0597 46.0373C88.4465 46.0373 92.2852 44.8198 94.6335 42.2924L91.1115 38.6885C89.847 40.0446 87.182 40.8422 85.1496 40.8422C81.2664 40.8422 78.8719 38.7817 78.5115 35.926H95.898C96.7582 26.4209 92.1054 21.6458 84.6531 21.6458ZM78.6014 31.1961C79.4114 28.201 81.8536 26.7031 84.8337 26.7031C87.9929 26.7031 90.2537 28.201 90.6141 31.1961H78.6014Z" fill="white"/>
<path d="M12.4494 50.9796H11.7649V55.9429H15.0415V55.3257H12.4494V50.9796Z" fill="white"/>
<path d="M16.8543 53.7236H19.2553V53.1208H16.8543V51.5968H19.5493V50.9796H16.1707V55.9429H19.6449V55.3257H16.8543V53.7236Z" fill="white"/>
<path d="M22.5383 50.9796L20.3699 55.9429H21.0746L21.6011 54.7019H24.1462L24.6728 55.9429H25.3904L23.2131 50.9796H22.5383ZM21.8409 54.1351L22.8737 51.7L23.9065 54.1351H21.8409Z" fill="white"/>
<path d="M28.4621 50.9796H26.4443V55.9429H28.4621C30.0011 55.9429 31.0477 54.9353 31.0477 53.4608C31.0477 51.9864 30.0011 50.9796 28.4621 50.9796ZM28.4216 55.3257H27.1255V51.5942H28.4216C29.6042 51.5942 30.3656 52.3499 30.3656 53.4583C30.3656 54.5667 29.6042 55.3257 28.4216 55.3257Z" fill="white"/>
<path d="M33.1206 50.9796H32.4369V55.9429H33.1206V50.9796Z" fill="white"/>
<path d="M38.3331 54.6809L35.4599 50.9796H34.8994V55.9429H35.583V52.2416L38.4562 55.9429H39.0167V50.9796H38.3331V54.6809Z" fill="white"/>
<path d="M42.998 51.5539C43.2549 51.5472 43.5104 51.5947 43.7491 51.6934C43.9877 51.7921 44.2046 51.9401 44.3864 52.1282L44.8109 51.6891C44.3727 51.1853 43.7303 50.9225 42.9705 50.9225C41.4865 50.9225 40.4059 51.9939 40.4059 53.4608C40.4059 54.9277 41.4865 55.9991 42.9567 55.9991C43.6274 55.9991 44.2909 55.7867 44.7696 55.3685V53.4373H44.1118V55.0536C43.7763 55.2713 43.3865 55.3822 42.9908 55.3727C41.8891 55.3727 41.0888 54.5574 41.0888 53.465C41.0896 52.355 41.8899 51.5539 42.998 51.5539Z" fill="white"/>
<path d="M53.3956 55.0352L52.0753 50.9796H51.4459L50.0988 55.0142L48.806 50.9796H48.1013L49.7019 55.9429H50.4333L51.7399 51.9797L53.0465 55.9429H53.765L55.3656 50.9796H54.716L53.3956 55.0352Z" fill="white"/>
<path d="M57.2263 50.9796H56.5426V55.9429H57.2263V50.9796Z" fill="white"/>
<path d="M58.3141 51.5968H59.9553V55.9429H60.6325V51.5968H62.2744V50.9796H58.3141V51.5968Z" fill="white"/>
<path d="M66.796 53.114H64.0459V50.9796H63.3622V55.9429H64.0459V53.7312H66.796V55.9429H67.4796V50.9796H66.796V53.114Z" fill="white"/>
<path d="M75.9687 50.9796L73.9988 54.4684L72.002 50.9796H71.4407V55.9429H72.0976V52.3483L73.8278 55.3409H74.1429L75.8732 52.3273L75.8796 55.9429H76.5366L76.5293 50.9796H75.9687Z" fill="white"/>
<path d="M81.66 53.7773C81.66 54.8765 81.1675 55.3727 80.3057 55.3727C79.4438 55.3727 78.9578 54.8765 78.9578 53.7773V50.9838H78.2741V53.8059C78.2741 55.2451 79.0404 56.0033 80.2992 56.0033C81.558 56.0033 82.3243 55.2476 82.3243 53.8059V50.9838H81.6609L81.66 53.7773Z" fill="white"/>
<path d="M84.4165 52.313C84.4165 51.8797 84.7657 51.5254 85.5798 51.5254C86.0455 51.5292 86.5007 51.6695 86.8928 51.9301L87.1188 51.3625C86.7219 51.0787 86.1403 50.9225 85.5798 50.9225C84.321 50.9225 83.7458 51.5749 83.7458 52.3407C83.7458 54.188 86.6466 53.4188 86.6466 54.6313C86.6466 55.0637 86.291 55.3971 85.4631 55.3971C84.8475 55.3971 84.2391 55.1561 83.8835 54.8227L83.63 55.3752C84.0131 55.7447 84.7316 55.9991 85.4631 55.9991C86.7284 55.9991 87.3165 55.3475 87.3165 54.5885C87.3165 52.7698 84.4165 53.5255 84.4165 52.313Z" fill="white"/>
<path d="M89.3423 50.9796H88.6579V55.9429H89.3423V50.9796Z" fill="white"/>
<path d="M93.2953 51.554C93.5473 51.5472 93.7979 51.5961 94.0303 51.6975C94.2627 51.7988 94.4716 51.9503 94.6432 52.1418L95.0871 51.6951C94.6497 51.1846 94.0065 50.9218 93.2678 50.9218C91.8097 50.9218 90.7307 51.9932 90.7307 53.4601C90.7307 54.927 91.8113 55.9984 93.2613 55.9984C94.0065 55.9984 94.6497 55.7297 95.0871 55.2192L94.6432 54.7725C94.4721 54.9651 94.2634 55.1177 94.031 55.2204C93.7986 55.323 93.5478 55.3733 93.2953 55.3678C92.2147 55.3678 91.4144 54.5592 91.4144 53.4601C91.4144 52.3609 92.2147 51.554 93.2953 51.554Z" fill="white"/>
</g>
<defs>
<clipPath id="clip0_51_4138">
<rect width="96" height="56" fill="white"/>
</clipPath>
</defs>
</svg>
